<svg xmlns="http://www.w3.org/2000/svg" data-name="Layer 51" viewBox="0 0 100 125" x="0px" y="0px"><path d="M78.26,70.2,65.91,75.87,63.54,95H87.33V67.79H82.57A10.44,10.44,0,0,1,78.26,70.2Z"/><polygon points="53.03 52.42 54.63 50.28 43.91 41.82 42.37 43.4 52 52.53 53.03 52.42"/><circle cx="53.79" cy="28.57" r="7.69"/><path d="M64.53,74.86l13.2-6.07c7.18-2.07,7.44-9.3,4.15-14.35-5.5-8.44-12.69-17-18.14-17a4.65,4.65,0,0,0-2.29.59,8.2,8.2,0,0,0-2.68,6.69L60.84,42a.75.75,0,0,1,1.2.9L54,53.58a.76.76,0,0,1-.52.29l-13,1.45v1.75H57.35L69.13,46.9a.75.75,0,0,1,1.06.08A.74.74,0,0,1,70.11,48l-6.06,5.24c3.09,3.72,5.87,7.21,5.87,7.21L60,68.22A6.3,6.3,0,0,0,57.63,73l-.78,22H62Z"/><path d="M30.17,85.56h2.29A2.5,2.5,0,0,1,35,88.05v6a2.56,2.56,0,0,1-.21,1H41.3V67.69H30.17Z"/><path d="M35.88,36.76s-5.29-7.15-2.76-8.19,9.11-.58,8.21-5.23c-.62-3.15-2.69-3.91-4-4.07h-1a2.52,2.52,0,0,1,.42,0,5,5,0,0,1,.62,0c2.36,0,8.12-.41,10.08-3.68C49.61,12,48.47,5,34.18,5H34c-1.08,0-7.29.12-8.36,3.82a4.91,4.91,0,0,0,2.16,6s-7,.68-7.82,7.38c-.73,6.09,6.36,6.37,7.62,6.37h.2S28.73,35.67,35.88,36.76Z"/><path d="M25.15,47.18a3.66,3.66,0,0,0-1.27-2.78l-1-.89v-6H19.51v6l-1,.89a3.66,3.66,0,0,0-1.27,2.78v9.89h7.94Z"/><path d="M32.46,87.06H22.07a3.66,3.66,0,0,0-2.78,1.27l-.9,1h-6V92.7h6l.9,1A3.66,3.66,0,0,0,22.07,95H32.46a1,1,0,0,0,1-1v-6A1,1,0,0,0,32.46,87.06Z"/><path d="M34.94,47.18a3.66,3.66,0,0,0-1.27-2.78l-1-.89v-6H29.3v6l-1,.89A3.66,3.66,0,0,0,27,47.18v9.89h7.94Z"/><polygon points="59.95 58.57 33.94 58.57 28 58.57 24.15 58.57 18.21 58.57 12.37 58.57 12.37 66.19 30.17 66.19 41.3 66.19 59.95 66.19 59.95 58.57"/><text x="0" y="115" fill="#000000" font-size="5px" font-weight="bold" font-family="'Helvetica Neue', Helvetica, Arial-Unicode, Arial, Sans-serif"></text><text x="0" y="120" fill="#000000" font-size="5px" font-weight="bold" font-family="'Helvetica Neue', Helvetica, Arial-Unicode, Arial, Sans-serif"></text></svg>